<?xml version="1.0" ?><!-- Uploaded to: SVG Repo, www.svgrepo.com, Generator: SVG Repo Mixer Tools -->
<svg fill="#000000" width="800px" height="800px" viewBox="0 0 24 24" id="Main" xmlns="http://www.w3.org/2000/svg"><title/><path d="M11.49,10H14a1,1,0,0,0,0-2H13a1,1,0,0,0-2,0v.05A2.5,2.5,0,0,0,11.49,13h1a.5.5,0,0,1,0,1H10a1,1,0,0,0,0,2h1a1,1,0,0,0,2,0V16A2.5,2.5,0,0,0,12.51,11h-1a.5.5,0,0,1,0-1Z"/><path d="M21,11H19.93a7.94,7.94,0,0,0-1.62-3.9l.76-.75a1,1,0,1,0-1.42-1.42l-.75.76A7.94,7.94,0,0,0,13,4.07V3a1,1,0,0,0-2,0V4.07A7.94,7.94,0,0,0,7.1,5.69l-.75-.76A1,1,0,0,0,4.93,6.35l.76.75A7.94,7.94,0,0,0,4.07,11H3a1,1,0,0,0,0,2H4.07a7.94,7.94,0,0,0,1.62,3.9l-.76.75a1,1,0,0,0,0,1.42,1,1,0,0,0,1.42,0l.75-.76A7.94,7.94,0,0,0,11,19.93V21a1,1,0,0,0,2,0V19.93a7.94,7.94,0,0,0,3.9-1.62l.75.76a1,1,0,0,0,1.42,0,1,1,0,0,0,0-1.42l-.76-.75A7.94,7.94,0,0,0,19.93,13H21a1,1,0,0,0,0-2Zm-9,7a6,6,0,1,1,6-6A6,6,0,0,1,12,18Z"/></svg>